# xmcd
#
# Track frame offsets: 
#        150
#        17745
#        35005
#        52935
#        69730
#        86915
#        104042
#        121427
#        138505
#        155865
#        173005
#        190177
#        208309
#        225135
#        243912
#        260725
#        277952
#        295082
#
# Disc length: 4160 seconds
#
# Revision: 0
# Processed by: cddbd v1.5.2PL0 Copyright (c) Steve Scherf et al.
# Submitted via: ExactAudioCopy v1.0b1
#
DISCID=0d103e12
DTITLE=Stefan Sidholm and Ingvar Pettersson - The Best Of Sting
DYEAR=1900
DGENRE=Country
TTITLE0=Gotta Get A Message To You
TTITLE1=With A Little Help From My Friends
TTITLE2=Only A Woman Knows
TTITLE3=Gonna Have A Party
TTITLE4=Tennessee Waltz
TTITLE5=Ruby Mountain
TTITLE6=Cheatin' Heart
TTITLE7=Love Is All Around
TTITLE8=Every Litte Thing
TTITLE9=Walking In Memphis
TTITLE10=Peaceful Easy Feeling
TTITLE11=Crocodile Rock
TTITLE12=Little Rock
TTITLE13=I'm In A Hurry
TTITLE14=When He Made You
TTITLE15=I'll Do It All Over Again
TTITLE16=My Life's Work
TTITLE17=Good Night Irene
EXTD=
EXTT0=
EXTT1=
EXTT2=
EXTT3=
EXTT4=
EXTT5=
EXTT6=
EXTT7=
EXTT8=
EXTT9=
EXTT10=
EXTT11=
EXTT12=
EXTT13=
EXTT14=
EXTT15=
EXTT16=
EXTT17=
PLAYORDER=
